<svg width="46" height="46" viewBox="0 0 46 46" fill="none" xmlns="http://www.w3.org/2000/svg">
<path d="M22.9989 0C10.3137 0 0 10.3137 0 22.9989C0 35.6841 10.3137 45.9978 22.9989 45.9978C35.6841 45.9978 45.9978 35.6841 45.9978 22.9989C45.9978 10.3137 35.6841 0 22.9989 0ZM28.7178 23.8018H24.9752C24.9752 29.78 24.9752 37.1416 24.9752 37.1416H19.4293C19.4293 37.1416 19.4293 29.8541 19.4293 23.8018H16.7983V19.0958H19.4293V16.0449C19.4293 13.8586 20.4668 10.4496 25.0246 10.4496L29.1377 10.4619V15.0444C29.1377 15.0444 26.6427 15.0444 26.1609 15.0444C25.6792 15.0444 24.9875 15.2914 24.9875 16.329V19.0958H29.2118L28.7178 23.8018Z" fill="white"/>
</svg>
