<svg width="22" height="22" viewBox="0 0 22 22" fill="none" xmlns="http://www.w3.org/2000/svg">
<path d="M21.2901 3.20829C21.0781 2.63512 20.7412 2.11585 20.3019 1.69001C19.876 1.25159 19.3567 0.913793 18.7836 0.701771C18.3182 0.521194 17.6192 0.30558 16.3318 0.247184C14.9393 0.183398 14.5216 0.169922 10.9954 0.169922C7.46918 0.169922 7.05143 0.183398 5.65891 0.247184C4.37151 0.306478 3.67166 0.521194 3.20719 0.701771C2.63312 0.913793 2.11475 1.25069 1.68891 1.69001C1.25049 2.11585 0.912694 2.63512 0.700673 3.20829C0.520095 3.67366 0.304481 4.37261 0.246085 5.66091C0.182299 7.05342 0.168823 7.47118 0.168823 10.9974C0.168823 14.5236 0.182299 14.9413 0.246085 16.3338C0.304481 17.6212 0.520095 18.3202 0.700673 18.7856C0.912694 19.3596 1.24959 19.878 1.68891 20.3039C2.11475 20.7423 2.63402 21.0801 3.20719 21.2921C3.67256 21.4736 4.37241 21.6883 5.65981 21.7467C7.05232 21.8105 7.46918 21.8239 10.9963 21.8239C14.5234 21.8239 14.9411 21.8105 16.3327 21.7467C17.6201 21.6883 18.32 21.4727 18.7854 21.2921C19.9371 20.8474 20.8472 19.9373 21.2919 18.7856C21.4725 18.3202 21.6881 17.6212 21.7465 16.3338C21.8103 14.9413 21.8237 14.5236 21.8237 10.9974C21.8237 7.47118 21.8103 7.05342 21.7465 5.66091C21.6863 4.37351 21.4716 3.67366 21.2901 3.20829ZM10.9954 17.7785C7.24997 17.7785 4.2134 14.7428 4.2134 10.9974C4.2134 7.25197 7.24997 4.21629 10.9954 4.21629C14.7408 4.21629 17.7765 7.25197 17.7765 10.9974C17.7765 14.7428 14.7408 17.7785 10.9954 17.7785ZM18.0451 5.53244C17.17 5.53244 16.4603 4.82271 16.4603 3.94767C16.4603 3.07264 17.17 2.3629 18.0451 2.3629C18.9201 2.3629 19.6299 3.07264 19.6299 3.94767C19.629 4.82271 18.9201 5.53244 18.0451 5.53244Z" fill="white"/>
</svg>
