<svg width="47" height="47" viewBox="0 0 47 47" fill="none" xmlns="http://www.w3.org/2000/svg">
<path d="M23.9955 0C11.2897 0 0.993408 10.2963 0.993408 23.002C0.993408 35.7078 11.2897 46.0041 23.9955 46.0041C36.7012 46.0041 46.9912 35.7015 46.9912 23.002C46.9912 10.3026 36.6949 0 23.9955 0ZM35.6596 25.4867C36.7325 26.5345 37.8682 27.5196 38.8282 28.6741C39.2549 29.1824 39.6564 29.7157 39.9639 30.3055C40.4031 31.1525 40.0078 32.0811 39.2486 32.1313H34.5365C33.3193 32.2317 32.353 31.7423 31.531 30.9078C30.8785 30.2427 30.2762 29.5337 29.6487 28.8498C29.3915 28.5675 29.1217 28.3039 28.8017 28.0969C28.1617 27.6828 27.6033 27.8083 27.2331 28.4796C26.8566 29.1635 26.775 29.9165 26.7374 30.6757C26.6872 31.7862 26.3484 32.0749 25.2378 32.1313C22.8535 32.2443 20.5947 31.8866 18.4928 30.6819C16.6418 29.6216 15.205 28.1283 13.9564 26.4342C11.5219 23.1338 9.65839 19.5135 7.98312 15.7865C7.60665 14.9457 7.88273 14.5002 8.80507 14.4814C10.3423 14.45 11.8795 14.4563 13.423 14.4814C14.0505 14.4939 14.4646 14.8516 14.703 15.4414C15.5313 17.4868 16.554 19.4319 17.8277 21.2327C18.1665 21.7158 18.5116 22.1926 19.0073 22.5315C19.5532 22.9079 19.9673 22.7824 20.2245 22.1738C20.3939 21.7848 20.463 21.3707 20.4943 20.9566C20.6198 19.5323 20.6324 18.1143 20.419 16.6962C20.2873 15.8116 19.7916 15.2343 18.9069 15.0712C18.4614 14.9833 18.5242 14.8202 18.7438 14.5629C19.1265 14.1175 19.4779 13.8414 20.1932 13.8414H25.5139C26.3546 14.0045 26.5429 14.381 26.6558 15.228L26.6621 21.1448C26.6495 21.4711 26.8252 22.4436 27.4087 22.657C27.8793 22.8138 28.193 22.4311 28.4754 22.1362C29.7491 20.7809 30.6589 19.1809 31.4746 17.5307C31.8322 16.8029 32.1459 16.0437 32.4471 15.2908C32.673 14.7324 33.0181 14.4563 33.6518 14.4688L38.778 14.4751C38.9286 14.4751 39.0792 14.4751 39.2298 14.5002C40.0956 14.6445 40.3278 15.021 40.0643 15.8618C39.6439 17.1857 38.8282 18.29 38.0251 19.3943C37.1718 20.5801 36.2557 21.7221 35.4086 22.9079C34.6306 23.9934 34.6934 24.5456 35.6596 25.4867Z" fill="white"/>
</svg>
